<svg xmlns="http://www.w3.org/2000/svg" viewBox="0 0 64 64">
  <defs>
    <radialGradient id="ocean" cx="24%" cy="22%" r="80%">
      <stop offset="0%" stop-color="#D8EEFF"/>
      <stop offset="40%" stop-color="#5AA9FF"/>
      <stop offset="100%" stop-color="#0B4F9C"/>
    </radialGradient>
    <radialGradient id="specular" cx="24%" cy="22%" r="28%">
      <stop offset="0%" stop-color="#FFFFFF" stop-opacity="0.95"/>
      <stop offset="70%" stop-color="#FFFFFF" stop-opacity="0.2"/>
      <stop offset="100%" stop-color="#FFFFFF" stop-opacity="0"/>
    </radialGradient>
  </defs>
  
  <!-- Ocean sphere -->
  <circle cx="32" cy="32" r="28" fill="url(#ocean)"/>
  
  <!-- Continents (stylized) -->
  <path fill="#2ECC71" d="M23 20c-2 1-3 3-2 5 1 2 3 3 4 5 1 1 0 3-2 4-3 1-4 3-3 5 2 2 7 2 9 0 3-3 1-6 0-8-1-2 0-4 1-6 1-2 0-3-2-3-1 0-3 0-5 1z"/>
  <path fill="#2EBF6B" d="M35 22c5 1 10 4 10 9 0 6-7 10-13 9-3-1-5-3-4-5 1-2 3-3 5-5 1-1 2-3 2-4 0-2-1-4 0-4z"/>
  <path fill="#29A65A" d="M41 39c2 1 4 2 3 4-1 2-4 3-6 3-2 0-3-1-2-2 1-1 3-2 5-5z"/>
  <circle cx="28" cy="46" r="2.2" fill="#27AE60"/>
  
  <!-- Gloss highlight -->
  <circle cx="32" cy="32" r="28" fill="url(#specular)"/>
  
  <!-- Subtle rim -->
  <circle cx="32" cy="32" r="28" fill="none" stroke="#FFFFFF" stroke-opacity="0.35" stroke-width="1.5"/>
</svg>